<svg width="32" height="32" viewBox="0 0 32 32" fill="none" xmlns="http://www.w3.org/2000/svg">
<path fill-rule="evenodd" clip-rule="evenodd" d="M31.9251 14.4654C32.7726 23.2605 26.3299 31.0776 17.5346 31.9251C8.73937 32.7727 0.922393 26.3298 0.0748922 17.5346C-0.772609 8.73948 5.6701 0.922511 14.4654 0.0748909C23.2606 -0.772609 31.0776 5.67022 31.9251 14.4654Z" fill="#F7504C"/>
<path d="M15.5255 25.3498L12.663 22.7661C8.7192 19.1668 6.22217 16.5023 6.22217 13.3285C6.22217 10.3445 8.58839 8 11.5999 8C13.3013 8 14.9342 8.78474 15.9999 10.0248C17.0657 8.78474 18.6986 8 20.3999 8C23.4115 8 25.7777 10.3445 25.7777 13.3285C25.7777 16.9906 22.4533 19.9746 17.4177 24.5086L16.476 25.3516C16.2053 25.594 15.7953 25.5932 15.5255 25.3498Z" fill="white"/>
</svg>
