<svg width="32" height="32" viewBox="0 0 32 32" fill="none" xmlns="http://www.w3.org/2000/svg">
<path fill-rule="evenodd" clip-rule="evenodd" d="M31.7496 13.1958C33.2983 21.8941 27.5024 30.2009 18.8043 31.7496C10.1059 33.2983 1.79921 27.5024 0.250395 18.8042C-1.2983 10.1059 4.49755 1.79913 13.1958 0.25043C21.8941 -1.29839 30.2009 4.49748 31.7496 13.1958Z" fill="#1F9EE1"/>
<path fill-rule="evenodd" clip-rule="evenodd" d="M20.3734 8.65669C20.5056 7.97678 20.3056 7.28632 19.8364 6.80366C19.0655 6.02414 17.8465 6.02825 17.093 6.81663L12.5825 11.4561C12.141 11.9103 11.8912 12.5347 11.8912 13.1843V21.5587C11.8912 22.9067 12.9541 23.9999 14.2495 23.9999H21.5842C22.5201 23.9999 23.3692 23.4234 23.7485 22.5333L26.4078 16.148C27.3037 13.9758 25.7623 11.573 23.4912 11.573H19.7853L20.3734 8.65669ZM10.0498 14.0315C10.0498 13.1367 9.35881 12.4113 8.50647 12.4113H6.87654C6.0242 12.4113 5.33325 13.1367 5.33325 14.0315V22.3797C5.33325 23.2745 6.0242 23.9999 6.87654 23.9999H8.50647C9.35881 23.9999 10.0498 23.2745 10.0498 22.3797V14.0315Z" fill="white"/>
</svg>
