<svg width="10" height="10" viewBox="0 0 10 10" fill="none" xmlns="http://www.w3.org/2000/svg">
<g id="Group Copy 3">
<path id="Oval" fill-rule="evenodd" clip-rule="evenodd" d="M5 10C7.76142 10 10 7.76142 10 5C10 2.23858 7.76142 0 5 0C2.23858 0 0 2.23858 0 5C0 7.76142 2.23858 10 5 10Z" fill="#1F9EE1"/>
<path id="Path" d="M3.24722 5.24485C3.15285 5.11678 2.97253 5.08946 2.84447 5.18383C2.7164 5.27819 2.68908 5.45851 2.78344 5.58658L4.12763 7.41084C4.25009 7.57703 4.50248 7.56423 4.6075 7.38651L7.10385 3.16192C7.18478 3.02496 7.13936 2.84833 7.0024 2.7674C6.86545 2.68647 6.68881 2.73189 6.60789 2.86885L4.33308 6.71852L3.24722 5.24485Z" fill="white" stroke="white" stroke-width="0.853333"/>
</g>
</svg>
