<svg width="40" height="40" viewBox="0 0 40 40" fill="none" xmlns="http://www.w3.org/2000/svg">
<circle cx="20" cy="20" r="20" fill="#D95423"/>
<path fill-rule="evenodd" clip-rule="evenodd" d="M26.0204 18.3387L20.5837 12.902V29.7417C20.5837 30.2163 20.2001 30.6 19.7254 30.6C19.2507 30.6 18.8671 30.2163 18.8671 29.7417V12.902L13.4304 18.3387C13.1034 18.6657 12.5729 18.6657 12.245 18.3387C11.918 18.0117 11.918 17.4804 12.245 17.1533L19.0301 10.3682C19.0576 10.3279 19.0756 10.2815 19.1117 10.2446C19.2791 10.0781 19.4988 9.99828 19.7168 10.0017L19.7254 10L19.734 10.0017C19.9537 9.99914 20.1726 10.0781 20.3391 10.2446C20.3743 10.2807 20.3906 10.3253 20.4172 10.3648L27.2058 17.1533C27.5328 17.4804 27.5328 18.0117 27.2058 18.3387C26.8779 18.6657 26.3474 18.6657 26.0204 18.3387Z" fill="white"/>
</svg>
